<?xml version='1.0' encoding='UTF-8'?>
<svg width="123mm" height="123mm" version="1.1" viewBox="0 0 123 123" xmlns="http://www.w3.org/2000/svg"><path d="M18,18H21V21H18zM21,18H24V21H21zM24,18H27V21H24zM27,18H30V21H27zM30,18H33V21H30zM33,18H36V21H33zM36,18H39V21H36zM42,18H45V21H42zM45,18H48V21H45zM51,18H54V21H51zM54,18H57V21H54zM57,18H60V21H57zM60,18H63V21H60zM63,18H66V21H63zM69,18H72V21H69zM84,18H87V21H84zM87,18H90V21H87zM90,18H93V21H90zM93,18H96V21H93zM96,18H99V21H96zM99,18H102V21H99zM102,18H105V21H102zM18,21H21V24H18zM36,21H39V24H36zM45,21H48V24H45zM48,21H51V24H48zM51,21H54V24H51zM63,21H66V24H63zM69,21H72V24H69zM84,21H87V24H84zM102,21H105V24H102zM18,24H21V27H18zM24,24H27V27H24zM27,24H30V27H27zM30,24H33V27H30zM36,24H39V27H36zM42,24H45V27H42zM48,24H51V27H48zM51,24H54V27H51zM54,24H57V27H54zM57,24H60V27H57zM69,24H72V27H69zM72,24H75V27H72zM78,24H81V27H78zM84,24H87V27H84zM90,24H93V27H90zM93,24H96V27H93zM96,24H99V27H96zM102,24H105V27H102zM18,27H21V30H18zM24,27H27V30H24zM27,27H30V30H27zM30,27H33V30H30zM36,27H39V30H36zM48,27H51V30H48zM51,27H54V30H51zM63,27H66V30H63zM66,27H69V30H66zM69,27H72V30H69zM72,27H75V30H72zM84,27H87V30H84zM90,27H93V30H90zM93,27H96V30H93zM96,27H99V30H96zM102,27H105V30H102zM18,30H21V33H18zM24,30H27V33H24zM27,30H30V33H27zM30,30H33V33H30zM36,30H39V33H36zM45,30H48V33H45zM48,30H51V33H48zM51,30H54V33H51zM63,30H66V33H63zM66,30H69V33H66zM72,30H75V33H72zM84,30H87V33H84zM90,30H93V33H90zM93,30H96V33H93zM96,30H99V33H96zM102,30H105V33H102zM18,33H21V36H18zM36,33H39V36H36zM42,33H45V36H42zM45,33H48V36H45zM51,33H54V36H51zM54,33H57V36H54zM57,33H60V36H57zM60,33H63V36H60zM66,33H69V36H66zM78,33H81V36H78zM84,33H87V36H84zM102,33H105V36H102zM18,36H21V39H18zM21,36H24V39H21zM24,36H27V39H24zM27,36H30V39H27zM30,36H33V39H30zM33,36H36V39H33zM36,36H39V39H36zM42,36H45V39H42zM48,36H51V39H48zM54,36H57V39H54zM60,36H63V39H60zM66,36H69V39H66zM72,36H75V39H72zM78,36H81V39H78zM84,36H87V39H84zM87,36H90V39H87zM90,36H93V39H90zM93,36H96V39H93zM96,36H99V39H96zM99,36H102V39H99zM102,36H105V39H102zM45,39H48V42H45zM51,39H54V42H51zM57,39H60V42H57zM72,39H75V42H72zM75,39H78V42H75zM78,39H81V42H78zM18,42H21V45H18zM24,42H27V45H24zM36,42H39V45H36zM39,42H42V45H39zM45,42H48V45H45zM48,42H51V45H48zM57,42H60V45H57zM63,42H66V45H63zM66,42H69V45H66zM78,42H81V45H78zM87,42H90V45H87zM96,42H99V45H96zM102,42H105V45H102zM27,45H30V48H27zM30,45H33V48H30zM33,45H36V48H33zM48,45H51V48H48zM66,45H69V48H66zM75,45H78V48H75zM84,45H87V48H84zM87,45H90V48H87zM99,45H102V48H99zM102,45H105V48H102zM24,48H27V51H24zM36,48H39V51H36zM39,48H42V51H39zM42,48H45V51H42zM45,48H48V51H45zM48,48H51V51H48zM54,48H57V51H54zM57,48H60V51H57zM60,48H63V51H60zM66,48H69V51H66zM69,48H72V51H69zM75,48H78V51H75zM81,48H84V51H81zM84,48H87V51H84zM87,48H90V51H87zM90,48H93V51H90zM93,48H96V51H93zM96,48H99V51H96zM102,48H105V51H102zM18,51H21V54H18zM30,51H33V54H30zM33,51H36V54H33zM45,51H48V54H45zM48,51H51V54H48zM60,51H63V54H60zM63,51H66V54H63zM66,51H69V54H66zM72,51H75V54H72zM78,51H81V54H78zM81,51H84V54H81zM87,51H90V54H87zM93,51H96V54H93zM21,54H24V57H21zM27,54H30V57H27zM36,54H39V57H36zM39,54H42V57H39zM42,54H45V57H42zM45,54H48V57H45zM51,54H54V57H51zM57,54H60V57H57zM60,54H63V57H60zM75,54H78V57H75zM78,54H81V57H78zM84,54H87V57H84zM87,54H90V57H87zM102,54H105V57H102zM21,57H24V60H21zM24,57H27V60H24zM27,57H30V60H27zM30,57H33V60H30zM33,57H36V60H33zM39,57H42V60H39zM42,57H45V60H42zM48,57H51V60H48zM57,57H60V60H57zM60,57H63V60H60zM75,57H78V60H75zM78,57H81V60H78zM81,57H84V60H81zM84,57H87V60H84zM87,57H90V60H87zM99,57H102V60H99zM102,57H105V60H102zM27,60H30V63H27zM33,60H36V63H33zM36,60H39V63H36zM39,60H42V63H39zM42,60H45V63H42zM51,60H54V63H51zM63,60H66V63H63zM75,60H78V63H75zM78,60H81V63H78zM84,60H87V63H84zM90,60H93V63H90zM102,60H105V63H102zM18,63H21V66H18zM27,63H30V66H27zM39,63H42V66H39zM42,63H45V66H42zM45,63H48V66H45zM48,63H51V66H48zM51,63H54V66H51zM57,63H60V66H57zM78,63H81V66H78zM90,63H93V66H90zM18,66H21V69H18zM21,66H24V69H21zM30,66H33V69H30zM33,66H36V69H33zM36,66H39V69H36zM54,66H57V69H54zM57,66H60V69H57zM63,66H66V69H63zM66,66H69V69H66zM72,66H75V69H72zM75,66H78V69H75zM78,66H81V69H78zM84,66H87V69H84zM87,66H90V69H87zM102,66H105V69H102zM27,69H30V72H27zM33,69H36V72H33zM39,69H42V72H39zM42,69H45V72H42zM45,69H48V72H45zM48,69H51V72H48zM54,69H57V72H54zM66,69H69V72H66zM69,69H72V72H69zM75,69H78V72H75zM78,69H81V72H78zM84,69H87V72H84zM87,69H90V72H87zM96,69H99V72H96zM99,69H102V72H99zM102,69H105V72H102zM18,72H21V75H18zM21,72H24V75H21zM24,72H27V75H24zM27,72H30V75H27zM33,72H36V75H33zM36,72H39V75H36zM45,72H48V75H45zM54,72H57V75H54zM57,72H60V75H57zM60,72H63V75H60zM66,72H69V75H66zM75,72H78V75H75zM78,72H81V75H78zM87,72H90V75H87zM93,72H96V75H93zM102,72H105V75H102zM30,75H33V78H30zM60,75H63V78H60zM63,75H66V78H63zM66,75H69V78H66zM72,75H75V78H72zM75,75H78V78H75zM78,75H81V78H78zM18,78H21V81H18zM21,78H24V81H21zM36,78H39V81H36zM39,78H42V81H39zM42,78H45V81H42zM45,78H48V81H45zM51,78H54V81H51zM57,78H60V81H57zM60,78H63V81H60zM69,78H72V81H69zM72,78H75V81H72zM78,78H81V81H78zM81,78H84V81H81zM84,78H87V81H84zM87,78H90V81H87zM90,78H93V81H90zM93,78H96V81H93zM99,78H102V81H99zM42,81H45V84H42zM51,81H54V84H51zM54,81H57V84H54zM57,81H60V84H57zM60,81H63V84H60zM69,81H72V84H69zM78,81H81V84H78zM90,81H93V84H90zM93,81H96V84H93zM96,81H99V84H96zM102,81H105V84H102zM18,84H21V87H18zM21,84H24V87H21zM24,84H27V87H24zM27,84H30V87H27zM30,84H33V87H30zM33,84H36V87H33zM36,84H39V87H36zM42,84H45V87H42zM45,84H48V87H45zM48,84H51V87H48zM51,84H54V87H51zM54,84H57V87H54zM63,84H66V87H63zM78,84H81V87H78zM84,84H87V87H84zM90,84H93V87H90zM102,84H105V87H102zM18,87H21V90H18zM36,87H39V90H36zM45,87H48V90H45zM48,87H51V90H48zM51,87H54V90H51zM57,87H60V90H57zM69,87H72V90H69zM78,87H81V90H78zM90,87H93V90H90zM99,87H102V90H99zM102,87H105V90H102zM18,90H21V93H18zM24,90H27V93H24zM27,90H30V93H27zM30,90H33V93H30zM36,90H39V93H36zM48,90H51V93H48zM57,90H60V93H57zM63,90H66V93H63zM66,90H69V93H66zM69,90H72V93H69zM75,90H78V93H75zM78,90H81V93H78zM81,90H84V93H81zM84,90H87V93H84zM87,90H90V93H87zM90,90H93V93H90zM93,90H96V93H93zM99,90H102V93H99zM18,93H21V96H18zM24,93H27V96H24zM27,93H30V96H27zM30,93H33V96H30zM36,93H39V96H36zM45,93H48V96H45zM51,93H54V96H51zM54,93H57V96H54zM66,93H69V96H66zM75,93H78V96H75zM78,93H81V96H78zM81,93H84V96H81zM87,93H90V96H87zM90,93H93V96H90zM93,93H96V96H93zM96,93H99V96H96zM99,93H102V96H99zM18,96H21V99H18zM24,96H27V99H24zM27,96H30V99H27zM30,96H33V99H30zM36,96H39V99H36zM42,96H45V99H42zM45,96H48V99H45zM48,96H51V99H48zM51,96H54V99H51zM57,96H60V99H57zM66,96H69V99H66zM69,96H72V99H69zM72,96H75V99H72zM75,96H78V99H75zM78,96H81V99H78zM81,96H84V99H81zM90,96H93V99H90zM99,96H102V99H99zM102,96H105V99H102zM18,99H21V102H18zM36,99H39V102H36zM54,99H57V102H54zM57,99H60V102H57zM63,99H66V102H63zM66,99H69V102H66zM72,99H75V102H72zM75,99H78V102H75zM78,99H81V102H78zM87,99H90V102H87zM90,99H93V102H90zM93,99H96V102H93zM18,102H21V105H18zM21,102H24V105H21zM24,102H27V105H24zM27,102H30V105H27zM30,102H33V105H30zM33,102H36V105H33zM36,102H39V105H36zM42,102H45V105H42zM45,102H48V105H45zM48,102H51V105H48zM54,102H57V105H54zM60,102H63V105H60zM69,102H72V105H69zM72,102H75V105H72zM78,102H81V105H78zM84,102H87V105H84zM90,102H93V105H90zM93,102H96V105H93zM102,102H105V105H102z" id="qr-path" fill="#000000" fill-opacity="1" fill-rule="nonzero" stroke="none"/></svg>